<?xml version="1.0" standalone="no"?><!DOCTYPE svg PUBLIC "-//W3C//DTD SVG 1.1//EN" "http://www.w3.org/Graphics/SVG/1.1/DTD/svg11.dtd"><svg t="1552019590650" class="icon" style="" viewBox="0 0 1024 1024" version="1.1" xmlns="http://www.w3.org/2000/svg" p-id="2547" xmlns:xlink="http://www.w3.org/1999/xlink" width="25" height="25"><defs><style type="text/css"></style></defs><path d="M510.8 129.2c-211.9 0-383.7 171.8-383.7 383.7 0 211.9 171.8 383.7 383.7 383.7 211.9 0 383.7-171.8 383.7-383.7 0-211.9-171.8-383.7-383.7-383.7z m153.3 250.2S494.8 674.2 491.9 676.9c-9.7 9.1-24.8 8.6-33.9-1.1l-109.6-101c-9.1-9.7-8.6-24.8 1.1-33.9 9.7-9.1 24.8-8.6 33.9 1.1l85.8 79.1 153.4-265.7c6.6-11.5 21.3-15.4 32.8-8.8 11.4 6.7 15.3 21.4 8.7 32.8z" p-id="2548" fill="#1afa29"></path></svg>