<?xml version="1.0" standalone="no"?><!DOCTYPE svg PUBLIC "-//W3C//DTD SVG 1.1//EN" "http://www.w3.org/Graphics/SVG/1.1/DTD/svg11.dtd"><svg t="1551932980887" class="icon" style="" viewBox="0 0 1175 1024" version="1.1" xmlns="http://www.w3.org/2000/svg" p-id="8699" xmlns:xlink="http://www.w3.org/1999/xlink" width="32.12890625" height="28"><defs><style type="text/css"></style></defs><path d="M1044.851565 98.927352h-141.100819A114.213274 114.213274 0 0 0 790.791702 0h-674.148358A114.213274 114.213274 0 0 0 2.978795 114.134885v87.952844A130.439868 130.439868 0 0 0 0 229.602388v663.722576a130.831815 130.831815 0 0 0 130.675036 130.675036h914.176529a130.831815 130.831815 0 0 0 130.675037-130.675036V229.602388a130.831815 130.831815 0 0 0-130.675037-130.675036zM117.11368 41.467963h674.148358a73.137258 73.137258 0 0 1 71.412692 57.851336H130.675036a129.969532 129.969532 0 0 0-86.228278 33.080303v-18.264717a73.137258 73.137258 0 0 1 72.666922-72.666922z m1011.692873 650.631555H771.194366a130.322284 130.322284 0 1 1 0-260.644569h357.690576zM771.194366 384.107785a177.355891 177.355891 0 1 0 0 354.711782h357.690576v154.505397a83.719819 83.719819 0 0 1-84.033377 83.56304H130.675036A83.719819 83.719819 0 0 1 47.033606 893.246574V229.602388a83.719819 83.719819 0 0 1 83.64143-83.64143h914.176529A83.719819 83.719819 0 0 1 1128.806553 229.602388V384.107785z" p-id="8700" fill="#8a8a8a"></path><path d="M774.094771 561.424481m-39.194671 0a39.194672 39.194672 0 1 0 78.389343 0 39.194672 39.194672 0 1 0-78.389343 0Z" p-id="8701" fill="#8a8a8a"></path></svg>